{
  "asset": {
    "version": "2.0",
    "generator": "THREE.GLTFExporter r171"
  },
  "scenes": [
    {
      "name": "Scene",
      "nodes": [
        25
      ]
    }
  ],
  "scene": 0,
  "nodes": [
    {
      "name": "Cube_1",
      "extras": {
        "name": "Cube_1"
      },
      "mesh": 0
    },
    {
      "name": "Cube_2",
      "extras": {
        "name": "Cube_2"
      },
      "mesh": 1
    },
    {
      "name": "Cube_3",
      "extras": {
        "name": "Cube_3"
      },
      "mesh": 2
    },
    {
      "name": "Cube_4",
      "extras": {
        "name": "Cube_4"
      },
      "mesh": 3
    },
    {
      "matrix": [
        5,
        0,
        0,
        0,
        0,
        5,
        0,
        0,
        0,
        0,
        5,
        0,
        0,
        5.5227885246276855,
        0,
        1
      ],
      "name": "Cube",
      "extras": {
        "name": "Cube"
      },
      "children": [
        0,
        1,
        2,
        3
      ]
    },
    {
      "matrix": [
        0.06259670853614807,
        0,
        0,
        0,
        0,
        -8.410422168920056e-9,
        0.06259671694657025,
        0,
        0,
        -0.06259671694657025,
        -8.410422168920056e-9,
        0,
        -1.262835144996643,
        2.4390220642089844,
        3.8194003105163574,
        1
      ],
      "name": "Cylinder",
      "extras": {
        "name": "Cylinder"
      },
      "mesh": 4
    },
    {
      "name": "Plane001",
      "extras": {
        "name": "Plane001"
      },
      "mesh": 5
    },
    {
      "name": "Plane001_1",
      "extras": {
        "name": "Plane001_1"
      },
      "mesh": 6
    },
    {
      "matrix": [
        1.4565774202346802,
        0,
        0,
        0,
        0,
        -1.3435885655173873e-7,
        1.0000001343588565,
        0,
        0,
        -1.0000001343588565,
        -1.3435885655173873e-7,
        0,
        1.381156086921692,
        3.4973018169403076,
        4.120802402496338,
        1
      ],
      "name": "Plane",
      "extras": {
        "name": "Plane"
      },
      "children": [
        6,
        7
      ]
    },
    {
      "name": "buildingglb",
      "extras": {
        "name": "building.glb"
      },
      "children": [
        4,
        5,
        8
      ]
    },
    {
      "matrix": [
        0,
        -1.4887159049913263e-16,
        -1.3409160789958936,
        0,
        0.9999999999999999,
        0,
        1.1102230246251564e-16,
        0,
        1.1102230246251564e-16,
        -0.9999999999999999,
        0,
        0,
        3.538035943409824,
        3.5085513005025772,
        1.9995014488159102,
        1
      ],
      "name": "Plane001_1",
      "extras": {
        "name": "Plane001"
      },
      "mesh": 5
    },
    {
      "matrix": [
        3.217342185263617e-16,
        -3.217342185263617e-16,
        -1.4489621066676603,
        0,
        1,
        0,
        2.220446049250313e-16,
        0,
        0,
        -1,
        2.220446049250313e-16,
        0,
        3.4054193878655887,
        3.5171867659974416,
        1.9894405710336183,
        1
      ],
      "name": "Plane001_1_1",
      "extras": {
        "name": "Plane001_1"
      },
      "mesh": 6
    },
    {
      "matrix": [
        0,
        -1.4887159049913263e-16,
        -1.3409160789958936,
        0,
        0.9999999999999999,
        0,
        1.1102230246251564e-16,
        0,
        1.1102230246251564e-16,
        -0.9999999999999999,
        0,
        0,
        3.538035943409824,
        3.5085513005025772,
        -1.5669634101303886,
        1
      ],
      "name": "Plane001_2",
      "extras": {
        "name": "Plane001"
      },
      "mesh": 5
    },
    {
      "matrix": [
        3.217342185263617e-16,
        -3.217342185263617e-16,
        -1.4489621066676603,
        0,
        1,
        0,
        2.220446049250313e-16,
        0,
        0,
        -1,
        2.220446049250313e-16,
        0,
        3.4054193878655887,
        3.5171867659974416,
        -1.5910708032357923,
        1
      ],
      "name": "Plane001_1_2",
      "extras": {
        "name": "Plane001_1"
      },
      "mesh": 6
    },
    {
      "matrix": [
        0,
        -1.4887159049913263e-16,
        -1.3409160789958936,
        0,
        0.9999999999999999,
        0,
        1.1102230246251564e-16,
        0,
        1.808223850978184e-16,
        -1.6287032522935585,
        0,
        0,
        3.538035943409824,
        10.196650815725336,
        1.9995014488159102,
        1
      ],
      "name": "Plane001_3",
      "extras": {
        "name": "Plane001"
      },
      "mesh": 5
    },
    {
      "matrix": [
        3.217342185263617e-16,
        -3.217342185263617e-16,
        -1.4489621066676603,
        0,
        1,
        0,
        2.220446049250313e-16,
        0,
        0,
        -1.161314779900759,
        2.5786368149666373e-16,
        0,
        3.4054193878655887,
        9.62374044567865,
        1.9894405710336183,
        1
      ],
      "name": "Plane001_1_3",
      "extras": {
        "name": "Plane001_1"
      },
      "mesh": 6
    },
    {
      "matrix": [
        3.217342185263617e-16,
        -3.217342185263617e-16,
        -1.4489621066676603,
        0,
        1,
        0,
        2.220446049250313e-16,
        0,
        0,
        -0.5458950641584558,
        1.2121305385158893e-16,
        0,
        3.4054193878655887,
        11.29449331266664,
        1.9894405710336183,
        1
      ],
      "name": "Plane001_1_4",
      "extras": {
        "name": "Plane001_1"
      },
      "mesh": 6
    },
    {
      "matrix": [
        1.3409160789958938,
        0,
        0,
        0,
        0,
        2.220446049250313e-16,
        1,
        0,
        0,
        -1.6287032522935587,
        3.6164477019563684e-16,
        0,
        1.4822849454457816,
        10.196650815725336,
        4.132734404104411,
        1
      ],
      "name": "Plane001_4",
      "extras": {
        "name": "Plane001"
      },
      "mesh": 5
    },
    {
      "matrix": [
        1.4333729801471722,
        0,
        0,
        0,
        0,
        2.220446049250313e-16,
        1,
        0,
        0,
        -0.5458950641584558,
        1.2121305385158893e-16,
        0,
        1.4993562962039557,
        11.29449331266664,
        4.057552253025522,
        1
      ],
      "name": "Plane001_1_5",
      "extras": {
        "name": "Plane001_1"
      },
      "mesh": 6
    },
    {
      "matrix": [
        1.4235977724750037,
        0,
        0,
        0,
        0,
        2.220446049250313e-16,
        1,
        0,
        0,
        -1.161314779900759,
        2.5786368149666373e-16,
        0,
        1.5000989660705928,
        9.62374044567865,
        4.068163439452818,
        1
      ],
      "name": "Plane001_1_6",
      "extras": {
        "name": "Plane001_1"
      },
      "mesh": 6
    },
    {
      "matrix": [
        0,
        -1.4887159049913263e-16,
        -1.3409160789958936,
        0,
        0.9999999999999999,
        0,
        1.1102230246251564e-16,
        0,
        1.808223850978184e-16,
        -1.6287032522935585,
        0,
        0,
        3.538035943409824,
        10.196650815725336,
        -1.5826664693861408,
        1
      ],
      "name": "Plane001_5",
      "extras": {
        "name": "Plane001"
      },
      "mesh": 5
    },
    {
      "matrix": [
        3.217342185263617e-16,
        -3.217342185263617e-16,
        -1.4489621066676603,
        0,
        1,
        0,
        2.220446049250313e-16,
        0,
        0,
        -0.5458950641584558,
        1.2121305385158893e-16,
        0,
        3.4054193878655887,
        11.29449331266664,
        -1.569967629700869,
        1
      ],
      "name": "Plane001_1_7",
      "extras": {
        "name": "Plane001_1"
      },
      "mesh": 6
    },
    {
      "matrix": [
        3.217342185263617e-16,
        -3.217342185263617e-16,
        -1.4489621066676603,
        0,
        1,
        0,
        2.220446049250313e-16,
        0,
        0,
        -1.161314779900759,
        2.5786368149666373e-16,
        0,
        3.4054193878655887,
        9.62374044567865,
        -1.5749438920648706,
        1
      ],
      "name": "Plane001_1_8",
      "extras": {
        "name": "Plane001_1"
      },
      "mesh": 6
    },
    {
      "matrix": [
        0.8336799753512335,
        0,
        0,
        0,
        0,
        2.220446049250313e-16,
        1,
        0,
        0,
        -0.6562879697746123,
        1.4572520296565469e-16,
        0,
        -2.3688757199941173,
        11.17262320059951,
        4.132734404104411,
        1
      ],
      "name": "Plane001_6",
      "extras": {
        "name": "Plane001"
      },
      "mesh": 5
    },
    {
      "matrix": [
        0.888668667282256,
        0,
        0,
        0,
        0,
        2.220446049250313e-16,
        1,
        0,
        0,
        -0.6530450036566435,
        1.4500511983520504e-16,
        0,
        -2.3721605166759394,
        11.16866523612998,
        4.057552253025522,
        1
      ],
      "name": "Plane001_1_9",
      "extras": {
        "name": "Plane001_1"
      },
      "mesh": 6
    },
    {
      "name": "building.gltf",
      "children": [
        9,
        10,
        11,
        12,
        13,
        14,
        15,
        16,
        17,
        18,
        19,
        20,
        21,
        22,
        23,
        24
      ]
    }
  ],
  "bufferViews": [
    {
      "buffer": 0,
      "byteOffset": 0,
      "byteLength": 1200,
      "target": 34962,
      "byteStride": 12
    },
    {
      "buffer": 0,
      "byteOffset": 1200,
      "byteLength": 1200,
      "target": 34962,
      "byteStride": 12
    },
    {
      "buffer": 0,
      "byteOffset": 2400,
      "byteLength": 800,
      "target": 34962,
      "byteStride": 8
    },
    {
      "buffer": 0,
      "byteOffset": 3200,
      "byteLength": 696,
      "target": 34963
    },
    {
      "buffer": 0,
      "byteOffset": 3896,
      "byteLength": 1236,
      "target": 34962,
      "byteStride": 12
    },
    {
      "buffer": 0,
      "byteOffset": 5132,
      "byteLength": 1236,
      "target": 34962,
      "byteStride": 12
    },
    {
      "buffer": 0,
      "byteOffset": 6368,
      "byteLength": 824,
      "target": 34962,
      "byteStride": 8
    },
    {
      "buffer": 0,
      "byteOffset": 7192,
      "byteLength": 768,
      "target": 34963
    },
    {
      "buffer": 0,
      "byteOffset": 7960,
      "byteLength": 384,
      "target": 34962,
      "byteStride": 12
    },
    {
      "buffer": 0,
      "byteOffset": 8344,
      "byteLength": 384,
      "target": 34962,
      "byteStride": 12
    },
    {
      "buffer": 0,
      "byteOffset": 8728,
      "byteLength": 256,
      "target": 34962,
      "byteStride": 8
    },
    {
      "buffer": 0,
      "byteOffset": 8984,
      "byteLength": 312,
      "target": 34963
    },
    {
      "buffer": 0,
      "byteOffset": 9296,
      "byteLength": 48,
      "target": 34962,
      "byteStride": 12
    },
    {
      "buffer": 0,
      "byteOffset": 9344,
      "byteLength": 48,
      "target": 34962,
      "byteStride": 12
    },
    {
      "buffer": 0,
      "byteOffset": 9392,
      "byteLength": 32,
      "target": 34962,
      "byteStride": 8
    },
    {
      "buffer": 0,
      "byteOffset": 9424,
      "byteLength": 12,
      "target": 34963
    },
    {
      "buffer": 0,
      "byteOffset": 9436,
      "byteLength": 18924,
      "target": 34962,
      "byteStride": 12
    },
    {
      "buffer": 0,
      "byteOffset": 28360,
      "byteLength": 18924,
      "target": 34962,
      "byteStride": 12
    },
    {
      "buffer": 0,
      "byteOffset": 47284,
      "byteLength": 12616,
      "target": 34962,
      "byteStride": 8
    },
    {
      "buffer": 0,
      "byteOffset": 59900,
      "byteLength": 6120,
      "target": 34963
    },
    {
      "buffer": 0,
      "byteOffset": 66020,
      "byteLength": 144,
      "target": 34962,
      "byteStride": 12
    },
    {
      "buffer": 0,
      "byteOffset": 66164,
      "byteLength": 144,
      "target": 34962,
      "byteStride": 12
    },
    {
      "buffer": 0,
      "byteOffset": 66308,
      "byteLength": 96,
      "target": 34962,
      "byteStride": 8
    },
    {
      "buffer": 0,
      "byteOffset": 66404,
      "byteLength": 60,
      "target": 34963
    },
    {
      "buffer": 0,
      "byteOffset": 66464,
      "byteLength": 576,
      "target": 34962,
      "byteStride": 12
    },
    {
      "buffer": 0,
      "byteOffset": 67040,
      "byteLength": 576,
      "target": 34962,
      "byteStride": 12
    },
    {
      "buffer": 0,
      "byteOffset": 67616,
      "byteLength": 384,
      "target": 34962,
      "byteStride": 8
    },
    {
      "buffer": 0,
      "byteOffset": 68000,
      "byteLength": 192,
      "target": 34963
    }
  ],
  "buffers": [
    {
      "byteLength": 68192,
      "uri": "data:application/octet-stream;base64,"
    }
  ],
  "accessors": [
    {
      "bufferView": 0,
      "componentType": 5126,
      "count": 100,
      "max": [
        0.7624183893203735,
        1.4527896642684937,
        0.8803685307502747
      ],
      "min": [
        -0.8975010514259338,
        -1.057350516319275,
        -0.7795509099960327
      ],
      "type": "VEC3"
    },
    {
      "bufferView": 1,
      "componentType": 5126,
      "count": 100,
      "max": [
        0.7071068286895752,
        1,
        0.9045340418815613
      ],
      "min": [
        -0.7071068286895752,
        -1,
        -1
      ],
      "type": "VEC3"
    },
    {
      "bufferView": 2,
      "componentType": 5126,
      "count": 100,
      "max": [
        0.8670763969421387,
        1
      ],
      "min": [
        0.375,
        0
      ],
      "type": "VEC2"
    },
    {
      "bufferView": 3,
      "componentType": 5123,
      "count": 348,
      "max": [
        99
      ],
      "min": [
        0
      ],
      "type": "SCALAR"
    },
    {
      "bufferView": 4,
      "componentType": 5126,
      "count": 103,
      "max": [
        0.7989213466644287,
        1.5254056453704834,
        0.9168714880943298
      ],
      "min": [
        -0.934004008769989,
        -1.091153860092163,
        -0.8160539269447327
      ],
      "type": "VEC3"
    },
    {
      "bufferView": 5,
      "componentType": 5126,
      "count": 103,
      "max": [
        0.7071068286895752,
        1,
        1
      ],
      "min": [
        -0.7071068286895752,
        -1,
        -1
      ],
      "type": "VEC3"
    },
    {
      "bufferView": 6,
      "componentType": 5126,
      "count": 103,
      "max": [
        0.875,
        1
      ],
      "min": [
        0.375,
        0
      ],
      "type": "VEC2"
    },
    {
      "bufferView": 7,
      "componentType": 5123,
      "count": 384,
      "max": [
        102
      ],
      "min": [
        0
      ],
      "type": "SCALAR"
    },
    {
      "bufferView": 8,
      "componentType": 5126,
      "count": 32,
      "max": [
        -0.14300578832626343,
        -0.16310638189315796,
        0.8613520264625549
      ],
      "min": [
        -0.7122678756713867,
        -1.057350516319275,
        0.7121047973632812
      ],
      "type": "VEC3"
    },
    {
      "bufferView": 9,
      "componentType": 5126,
      "count": 32,
      "max": [
        0.6297601461410522,
        0.904534101486206,
        0.8335056304931641
      ],
      "min": [
        -0.6297601461410522,
        -0.5896626710891724,
        -0.8335056304931641
      ],
      "type": "VEC3"
    },
    {
      "bufferView": 10,
      "componentType": 5126,
      "count": 32,
      "max": [
        0.4505610466003418,
        0.10482120513916016
      ],
      "min": [
        0.375,
        0.028310537338256836
      ],
      "type": "VEC2"
    },
    {
      "bufferView": 11,
      "componentType": 5123,
      "count": 156,
      "max": [
        31
      ],
      "min": [
        0
      ],
      "type": "SCALAR"
    },
    {
      "bufferView": 12,
      "componentType": 5126,
      "count": 4,
      "max": [
        -0.1918916404247284,
        -0.2095889449119568,
        0.7527456879615784
      ],
      "min": [
        -0.6633820533752441,
        -1.010867953300476,
        0.7527456879615784
      ],
      "type": "VEC3"
    },
    {
      "bufferView": 13,
      "componentType": 5126,
      "count": 4,
      "max": [
        0.5773502588272095,
        0.5773502588272095,
        0.5773502588272095
      ],
      "min": [
        -0.5773502588272095,
        -0.5773502588272095,
        0.5773502588272095
      ],
      "type": "VEC3"
    },
    {
      "bufferView": 14,
      "componentType": 5126,
      "count": 4,
      "max": [
        0.4505610466003418,
        0.10482120513916016
      ],
      "min": [
        0.375,
        0.028310537338256836
      ],
      "type": "VEC2"
    },
    {
      "bufferView": 15,
      "componentType": 5123,
      "count": 6,
      "max": [
        3
      ],
      "min": [
        0
      ],
      "type": "SCALAR"
    },
    {
      "bufferView": 16,
      "componentType": 5126,
      "count": 1577,
      "max": [
        2.225837469100952,
        4.479321479797363,
        2.225839614868164
      ],
      "min": [
        -2.225839376449585,
        -1,
        -2.225837230682373
      ],
      "type": "VEC3"
    },
    {
      "bufferView": 17,
      "componentType": 5126,
      "count": 1577,
      "max": [
        0.9951865673065186,
        1,
        0.9951865673065186
      ],
      "min": [
        -0.9951865673065186,
        -1,
        -0.9951865673065186
      ],
      "type": "VEC3"
    },
    {
      "bufferView": 18,
      "componentType": 5126,
      "count": 1577,
      "max": [
        1,
        0.9900000095367432
      ],
      "min": [
        0,
        0.17063510417938232
      ],
      "type": "VEC2"
    },
    {
      "bufferView": 19,
      "componentType": 5123,
      "count": 3060,
      "max": [
        1576
      ],
      "min": [
        0
      ],
      "type": "SCALAR"
    },
    {
      "bufferView": 20,
      "componentType": 5126,
      "count": 12,
      "max": [
        1,
        0.13782310485839844,
        1
      ],
      "min": [
        -1,
        0,
        -1
      ],
      "type": "VEC3"
    },
    {
      "bufferView": 21,
      "componentType": 5126,
      "count": 12,
      "max": [
        0,
        1,
        0
      ],
      "min": [
        0,
        -1,
        0
      ],
      "type": "VEC3"
    },
    {
      "bufferView": 22,
      "componentType": 5126,
      "count": 12,
      "max": [
        1,
        1
      ],
      "min": [
        0,
        0
      ],
      "type": "VEC2"
    },
    {
      "bufferView": 23,
      "componentType": 5123,
      "count": 30,
      "max": [
        11
      ],
      "min": [
        0
      ],
      "type": "SCALAR"
    },
    {
      "bufferView": 24,
      "componentType": 5126,
      "count": 48,
      "max": [
        1,
        0.19386689364910126,
        1
      ],
      "min": [
        -1,
        0,
        -1
      ],
      "type": "VEC3"
    },
    {
      "bufferView": 25,
      "componentType": 5126,
      "count": 48,
      "max": [
        1,
        1,
        1
      ],
      "min": [
        -1,
        0,
        -1
      ],
      "type": "VEC3"
    },
    {
      "bufferView": 26,
      "componentType": 5126,
      "count": 48,
      "max": [
        1,
        1
      ],
      "min": [
        0,
        0
      ],
      "type": "VEC2"
    },
    {
      "bufferView": 27,
      "componentType": 5123,
      "count": 96,
      "max": [
        47
      ],
      "min": [
        0
      ],
      "type": "SCALAR"
    }
  ],
  "materials": [
    {
      "pbrMetallicRoughness": {
        "baseColorFactor": [
          0.7991027380100881,
          0.0009105809505882353,
          0.010960094003125918,
          1
        ],
        "metallicFactor": 0,
        "roughnessFactor": 1
      },
      "doubleSided": true,
      "name": "building"
    },
    {
      "pbrMetallicRoughness": {
        "baseColorFactor": [
          0.023153366173251366,
          0.024157632443547246,
          0.026241221889696346,
          1
        ],
        "metallicFactor": 0,
        "roughnessFactor": 1
      },
      "doubleSided": true,
      "name": "Lips"
    },
    {
      "pbrMetallicRoughness": {
        "baseColorFactor": [
          0.25818285291079235,
          0.059511238155621766,
          0.006512090790025684,
          1
        ],
        "metallicFactor": 0,
        "roughnessFactor": 0.5
      },
      "doubleSided": true,
      "name": "Door frame"
    },
    {
      "pbrMetallicRoughness": {
        "baseColorFactor": [
          0.00030352698352941176,
          0.031896033067374104,
          0.014443843592229466,
          1
        ],
        "metallicFactor": 0,
        "roughnessFactor": 0
      },
      "doubleSided": true,
      "name": "Door"
    },
    {
      "pbrMetallicRoughness": {
        "baseColorFactor": [
          0.036889450395083165,
          0.04817182422013895,
          0.12477181755144427,
          1
        ],
        "metallicFactor": 1,
        "roughnessFactor": 1
      }
    },
    {
      "pbrMetallicRoughness": {
        "baseColorFactor": [
          0.7991027380100881,
          0.7991027380100881,
          0.7991027380100881,
          1
        ],
        "metallicFactor": 1,
        "roughnessFactor": 0.54
      },
      "doubleSided": true,
      "name": "Window"
    },
    {
      "pbrMetallicRoughness": {
        "baseColorFactor": [
          0.036889450395083165,
          0.059511238155621766,
          0.0781874217970207,
          1
        ],
        "metallicFactor": 0,
        "roughnessFactor": 0.5
      },
      "doubleSided": true,
      "name": "Material"
    }
  ],
  "meshes": [
    {
      "primitives": [
        {
          "mode": 4,
          "attributes": {
            "POSITION": 0,
            "NORMAL": 1,
            "TEXCOORD_0": 2
          },
          "indices": 3,
          "material": 0
        }
      ]
    },
    {
      "primitives": [
        {
          "mode": 4,
          "attributes": {
            "POSITION": 4,
            "NORMAL": 5,
            "TEXCOORD_0": 6
          },
          "indices": 7,
          "material": 1
        }
      ]
    },
    {
      "primitives": [
        {
          "mode": 4,
          "attributes": {
            "POSITION": 8,
            "NORMAL": 9,
            "TEXCOORD_0": 10
          },
          "indices": 11,
          "material": 2
        }
      ]
    },
    {
      "primitives": [
        {
          "mode": 4,
          "attributes": {
            "POSITION": 12,
            "NORMAL": 13,
            "TEXCOORD_0": 14
          },
          "indices": 15,
          "material": 3
        }
      ]
    },
    {
      "primitives": [
        {
          "mode": 4,
          "attributes": {
            "POSITION": 16,
            "NORMAL": 17,
            "TEXCOORD_0": 18
          },
          "indices": 19,
          "material": 4
        }
      ]
    },
    {
      "primitives": [
        {
          "mode": 4,
          "attributes": {
            "POSITION": 20,
            "NORMAL": 21,
            "TEXCOORD_0": 22
          },
          "indices": 23,
          "material": 5
        }
      ]
    },
    {
      "primitives": [
        {
          "mode": 4,
          "attributes": {
            "POSITION": 24,
            "NORMAL": 25,
            "TEXCOORD_0": 26
          },
          "indices": 27,
          "material": 6
        }
      ]
    }
  ]
}