{
  "asset": {
    "version": "2.0",
    "generator": "THREE.GLTFExporter r171"
  },
  "scenes": [
    {
      "name": "Scene",
      "nodes": [
        0,
        13
      ]
    }
  ],
  "scene": 0,
  "nodes": [
    {
      "matrix": [
        1,
        0,
        0,
        0,
        0,
        1,
        0,
        0,
        0,
        0,
        1,
        0,
        1.2291065840067223,
        5.010645260358283,
        0.18173737010103438,
        1
      ],
      "name": "AmbientLight"
    },
    {
      "name": "Object_4",
      "extras": {
        "name": "Object_4"
      },
      "mesh": 0
    },
    {
      "name": "Object_5",
      "extras": {
        "name": "Object_5"
      },
      "mesh": 1
    },
    {
      "name": "Object_6",
      "extras": {
        "name": "Object_6"
      },
      "mesh": 2
    },
    {
      "name": "Object_7",
      "extras": {
        "name": "Object_7"
      },
      "mesh": 3
    },
    {
      "name": "Object_8",
      "extras": {
        "name": "Object_8"
      },
      "mesh": 4
    },
    {
      "name": "Object_9",
      "extras": {
        "name": "Object_9"
      },
      "mesh": 5
    },
    {
      "matrix": [
        1.685874690462536e-11,
        7.549792939227954e-12,
        -0.00010000004112953148,
        0,
        -7.549792939227952e-12,
        -0.00010000004112953255,
        -7.549794212027994e-12,
        0,
        -0.00010000004112953148,
        7.549794212028002e-12,
        -1.6858746316206915e-11,
        0,
        0,
        0,
        0,
        1
      ],
      "name": "Tokyo_Building006_0",
      "extras": {
        "name": "Tokyo_Building.006_0"
      },
      "children": [
        1,
        2,
        3,
        4,
        5,
        6
      ]
    },
    {
      "matrix": [
        1,
        0,
        0,
        0,
        0,
        2.220446049250313e-16,
        1,
        0,
        0,
        -1,
        2.220446049250313e-16,
        0,
        0,
        0,
        0,
        1
      ],
      "name": "GLTF_SceneRootNode",
      "extras": {
        "name": "GLTF_SceneRootNode"
      },
      "children": [
        7
      ]
    },
    {
      "name": "root",
      "extras": {
        "name": "root"
      },
      "children": [
        8
      ]
    },
    {
      "matrix": [
        1,
        0,
        0,
        0,
        0,
        2.220446049250313e-16,
        -1,
        0,
        0,
        1,
        2.220446049250313e-16,
        0,
        0,
        0,
        0,
        1
      ],
      "name": "Sketchfab_model",
      "extras": {
        "name": "Sketchfab_model"
      },
      "children": [
        9
      ]
    },
    {
      "matrix": [
        0.1,
        0,
        0,
        0,
        0,
        0.1,
        0,
        0,
        0,
        0,
        0.1,
        0,
        0,
        0,
        0,
        1
      ],
      "name": "building2glb",
      "extras": {
        "name": "building2.glb"
      },
      "children": [
        10
      ]
    },
    {
      "name": "building2gltf",
      "extras": {
        "name": "building2.gltf"
      },
      "children": [
        11
      ]
    },
    {
      "name": "building2.gltf",
      "children": [
        12
      ]
    }
  ],
  "bufferViews": [
    {
      "buffer": 0,
      "byteOffset": 0,
      "byteLength": 8520,
      "target": 34962,
      "byteStride": 12
    },
    {
      "buffer": 0,
      "byteOffset": 8520,
      "byteLength": 8520,
      "target": 34962,
      "byteStride": 12
    },
    {
      "buffer": 0,
      "byteOffset": 17040,
      "byteLength": 5680,
      "target": 34962,
      "byteStride": 8
    },
    {
      "buffer": 0,
      "byteOffset": 22720,
      "byteLength": 6648,
      "target": 34963
    },
    {
      "buffer": 0,
      "byteOffset": 29368,
      "byteLength": 648,
      "target": 34962,
      "byteStride": 12
    },
    {
      "buffer": 0,
      "byteOffset": 30016,
      "byteLength": 648,
      "target": 34962,
      "byteStride": 12
    },
    {
      "buffer": 0,
      "byteOffset": 30664,
      "byteLength": 432,
      "target": 34962,
      "byteStride": 8
    },
    {
      "buffer": 0,
      "byteOffset": 31096,
      "byteLength": 600,
      "target": 34963
    },
    {
      "buffer": 0,
      "byteOffset": 31696,
      "byteLength": 480,
      "target": 34962,
      "byteStride": 12
    },
    {
      "buffer": 0,
      "byteOffset": 32176,
      "byteLength": 480,
      "target": 34962,
      "byteStride": 12
    },
    {
      "buffer": 0,
      "byteOffset": 32656,
      "byteLength": 320,
      "target": 34962,
      "byteStride": 8
    },
    {
      "buffer": 0,
      "byteOffset": 32976,
      "byteLength": 240,
      "target": 34963
    },
    {
      "buffer": 0,
      "byteOffset": 33216,
      "byteLength": 2040,
      "target": 34962,
      "byteStride": 12
    },
    {
      "buffer": 0,
      "byteOffset": 35256,
      "byteLength": 2040,
      "target": 34962,
      "byteStride": 12
    },
    {
      "buffer": 0,
      "byteOffset": 37296,
      "byteLength": 1360,
      "target": 34962,
      "byteStride": 8
    },
    {
      "buffer": 0,
      "byteOffset": 38656,
      "byteLength": 1944,
      "target": 34963
    },
    {
      "buffer": 0,
      "byteOffset": 40600,
      "byteLength": 100080,
      "target": 34962,
      "byteStride": 12
    },
    {
      "buffer": 0,
      "byteOffset": 140680,
      "byteLength": 100080,
      "target": 34962,
      "byteStride": 12
    },
    {
      "buffer": 0,
      "byteOffset": 240760,
      "byteLength": 66720,
      "target": 34962,
      "byteStride": 8
    },
    {
      "buffer": 0,
      "byteOffset": 307480,
      "byteLength": 95664,
      "target": 34963
    },
    {
      "buffer": 0,
      "byteOffset": 403144,
      "byteLength": 12432,
      "target": 34962,
      "byteStride": 12
    },
    {
      "buffer": 0,
      "byteOffset": 415576,
      "byteLength": 12432,
      "target": 34962,
      "byteStride": 12
    },
    {
      "buffer": 0,
      "byteOffset": 428008,
      "byteLength": 8288,
      "target": 34962,
      "byteStride": 8
    },
    {
      "buffer": 0,
      "byteOffset": 436296,
      "byteLength": 8136,
      "target": 34963
    }
  ],
  "buffers": [
    {
      "byteLength": 444432,
      "uri": "data:application/octet-stream;base64,"
    }
  ],
  "accessors": [
    {
      "bufferView": 0,
      "componentType": 5126,
      "count": 710,
      "max": [
        1,
        1,
        1
      ],
      "min": [
        -1,
        -1,
        -1
      ],
      "type": "VEC3"
    },
    {
      "bufferView": 1,
      "componentType": 5126,
      "count": 710,
      "max": [
        238460.84375,
        -0.054931640625,
        347253.125
      ],
      "min": [
        -189595.21875,
        -1003060.4375,
        -347793.75
      ],
      "type": "VEC3"
    },
    {
      "bufferView": 2,
      "componentType": 5126,
      "count": 710,
      "max": [
        2736.404541015625,
        2858.723388671875
      ],
      "min": [
        -2736.404541015625,
        -453.4682922363281
      ],
      "type": "VEC2"
    },
    {
      "bufferView": 3,
      "componentType": 5125,
      "count": 1662,
      "max": [
        709
      ],
      "min": [
        0
      ],
      "type": "SCALAR"
    },
    {
      "bufferView": 4,
      "componentType": 5126,
      "count": 54,
      "max": [
        0.000002274179223604733,
        -1,
        0
      ],
      "min": [
        -0.0000030865799089951906,
        -1,
        0
      ],
      "type": "VEC3"
    },
    {
      "bufferView": 5,
      "componentType": 5126,
      "count": 54,
      "max": [
        161251.953125,
        -955796.75,
        303448.4375
      ],
      "min": [
        -146186.234375,
        -1003060.4375,
        -303989.0625
      ],
      "type": "VEC3"
    },
    {
      "bufferView": 6,
      "componentType": 5126,
      "count": 54,
      "max": [
        1256.2528076171875,
        2391.489013671875
      ],
      "min": [
        -2391.489013671875,
        -100.3936996459961
      ],
      "type": "VEC2"
    },
    {
      "bufferView": 7,
      "componentType": 5125,
      "count": 150,
      "max": [
        53
      ],
      "min": [
        0
      ],
      "type": "SCALAR"
    },
    {
      "bufferView": 8,
      "componentType": 5126,
      "count": 40,
      "max": [
        1,
        0,
        1
      ],
      "min": [
        -1,
        -1,
        -1
      ],
      "type": "VEC3"
    },
    {
      "bufferView": 9,
      "componentType": 5126,
      "count": 40,
      "max": [
        82450.6875,
        -955796.75,
        102499.21875
      ],
      "min": [
        -11349.31640625,
        -1049896.875,
        -272242.1875
      ],
      "type": "VEC3"
    },
    {
      "bufferView": 10,
      "componentType": 5126,
      "count": 40,
      "max": [
        438.58270263671875,
        438.58270263671875
      ],
      "min": [
        -438.58270263671875,
        0
      ],
      "type": "VEC2"
    },
    {
      "bufferView": 11,
      "componentType": 5125,
      "count": 60,
      "max": [
        39
      ],
      "min": [
        0
      ],
      "type": "SCALAR"
    },
    {
      "bufferView": 12,
      "componentType": 5126,
      "count": 170,
      "max": [
        1,
        0,
        1
      ],
      "min": [
        -1,
        0,
        -1
      ],
      "type": "VEC3"
    },
    {
      "bufferView": 13,
      "componentType": 5126,
      "count": 170,
      "max": [
        182532.8125,
        -115181.015625,
        324729.6875
      ],
      "min": [
        -167467.09375,
        -981296.875,
        -325270.3125
      ],
      "type": "VEC3"
    },
    {
      "bufferView": 14,
      "componentType": 5126,
      "count": 170,
      "max": [
        1377.9527587890625,
        3409.904541015625
      ],
      "min": [
        -2559.05517578125,
        0
      ],
      "type": "VEC2"
    },
    {
      "bufferView": 15,
      "componentType": 5125,
      "count": 486,
      "max": [
        169
      ],
      "min": [
        0
      ],
      "type": "SCALAR"
    },
    {
      "bufferView": 16,
      "componentType": 5126,
      "count": 8340,
      "max": [
        1,
        0,
        1
      ],
      "min": [
        -1,
        -1,
        -1
      ],
      "type": "VEC3"
    },
    {
      "bufferView": 17,
      "componentType": 5126,
      "count": 8340,
      "max": [
        192840.53125,
        -0.054931640625,
        347753.125
      ],
      "min": [
        -189595.21875,
        -983830.0625,
        -347793.75
      ],
      "type": "VEC3"
    },
    {
      "bufferView": 18,
      "componentType": 5126,
      "count": 8340,
      "max": [
        2932.50146484375,
        3399.478271484375
      ],
      "min": [
        -2932.50146484375,
        0
      ],
      "type": "VEC2"
    },
    {
      "bufferView": 19,
      "componentType": 5125,
      "count": 23916,
      "max": [
        8339
      ],
      "min": [
        0
      ],
      "type": "SCALAR"
    },
    {
      "bufferView": 20,
      "componentType": 5126,
      "count": 1036,
      "max": [
        1,
        1,
        1
      ],
      "min": [
        -1,
        -1,
        -1
      ],
      "type": "VEC3"
    },
    {
      "bufferView": 21,
      "componentType": 5126,
      "count": 1036,
      "max": [
        205760.75,
        -0.054931640625,
        347753.125
      ],
      "min": [
        -189595.21875,
        -881296.875,
        -347793.75
      ],
      "type": "VEC3"
    },
    {
      "bufferView": 22,
      "componentType": 5126,
      "count": 1036,
      "max": [
        2738.373046875,
        3016.20361328125
      ],
      "min": [
        -2738.373046875,
        0
      ],
      "type": "VEC2"
    },
    {
      "bufferView": 23,
      "componentType": 5125,
      "count": 2034,
      "max": [
        1035
      ],
      "min": [
        0
      ],
      "type": "SCALAR"
    }
  ],
  "materials": [
    {
      "pbrMetallicRoughness": {
        "baseColorFactor": [
          0.350553,
          0.350553,
          0.350553,
          1
        ],
        "metallicFactor": 0,
        "roughnessFactor": 0.4
      },
      "doubleSided": true,
      "name": "Mtl_Concrete"
    },
    {
      "pbrMetallicRoughness": {
        "baseColorFactor": [
          0,
          0,
          0,
          1
        ],
        "metallicFactor": 0,
        "roughnessFactor": 1
      },
      "doubleSided": true,
      "name": "Mtl_Roof"
    },
    {
      "pbrMetallicRoughness": {
        "metallicFactor": 0.838235,
        "roughnessFactor": 0.235294
      },
      "doubleSided": true,
      "name": "Mtl_RoofItems"
    },
    {
      "pbrMetallicRoughness": {
        "baseColorFactor": [
          0.09989872823822872,
          0.34191442489801843,
          0.5840784178830671,
          1
        ],
        "metallicFactor": 0.9,
        "roughnessFactor": 0
      },
      "doubleSided": true,
      "name": "Mtl_Glass"
    },
    {
      "pbrMetallicRoughness": {
        "baseColorFactor": [
          0.0290985,
          0.0290985,
          0.0290985,
          1
        ],
        "metallicFactor": 1,
        "roughnessFactor": 1
      },
      "doubleSided": true,
      "name": "Mtl_Ax_Metal"
    },
    {
      "pbrMetallicRoughness": {
        "baseColorFactor": [
          0.0107023,
          0.0126854,
          0.0219787,
          1
        ],
        "metallicFactor": 0,
        "roughnessFactor": 0.5
      },
      "doubleSided": true,
      "name": "Mtl_DifferentRow"
    }
  ],
  "meshes": [
    {
      "primitives": [
        {
          "mode": 4,
          "attributes": {
            "NORMAL": 0,
            "POSITION": 1,
            "TEXCOORD_0": 2
          },
          "indices": 3,
          "material": 0
        }
      ]
    },
    {
      "primitives": [
        {
          "mode": 4,
          "attributes": {
            "NORMAL": 4,
            "POSITION": 5,
            "TEXCOORD_0": 6
          },
          "indices": 7,
          "material": 1
        }
      ]
    },
    {
      "primitives": [
        {
          "mode": 4,
          "attributes": {
            "NORMAL": 8,
            "POSITION": 9,
            "TEXCOORD_0": 10
          },
          "indices": 11,
          "material": 2
        }
      ]
    },
    {
      "primitives": [
        {
          "mode": 4,
          "attributes": {
            "NORMAL": 12,
            "POSITION": 13,
            "TEXCOORD_0": 14
          },
          "indices": 15,
          "material": 3
        }
      ]
    },
    {
      "primitives": [
        {
          "mode": 4,
          "attributes": {
            "NORMAL": 16,
            "POSITION": 17,
            "TEXCOORD_0": 18
          },
          "indices": 19,
          "material": 4
        }
      ]
    },
    {
      "primitives": [
        {
          "mode": 4,
          "attributes": {
            "NORMAL": 20,
            "POSITION": 21,
            "TEXCOORD_0": 22
          },
          "indices": 23,
          "material": 5
        }
      ]
    }
  ]
}