{
  "asset": {
    "version": "2.0",
    "generator": "THREE.GLTFExporter r171"
  },
  "scenes": [
    {
      "name": "Scene",
      "nodes": [
        0,
        14
      ]
    }
  ],
  "scene": 0,
  "nodes": [
    {
      "matrix": [
        1,
        0,
        0,
        0,
        0,
        1,
        0,
        0,
        0,
        0,
        1,
        0,
        1.2291065840067223,
        5.010645260358283,
        0.18173737010103438,
        1
      ],
      "name": "AmbientLight"
    },
    {
      "name": "geo1_Body_0",
      "extras": {
        "name": "geo1_Body_0"
      },
      "mesh": 0
    },
    {
      "name": "geo1_Indicator_0",
      "extras": {
        "name": "geo1_Indicator_0"
      },
      "mesh": 1
    },
    {
      "name": "geo1_Headlight_0",
      "extras": {
        "name": "geo1_Headlight_0"
      },
      "mesh": 2
    },
    {
      "name": "geo1_Glass_0",
      "extras": {
        "name": "geo1_Glass_0"
      },
      "mesh": 3
    },
    {
      "name": "geo1_Tyre_0",
      "extras": {
        "name": "geo1_Tyre_0"
      },
      "mesh": 4
    },
    {
      "name": "geo1_Rims_0",
      "extras": {
        "name": "geo1_Rims_0"
      },
      "mesh": 5
    },
    {
      "name": "geo1_Fender_0",
      "extras": {
        "name": "geo1_Fender_0"
      },
      "mesh": 6
    },
    {
      "name": "geo1_Fittings_0",
      "extras": {
        "name": "geo1_Fittings_0"
      },
      "mesh": 7
    },
    {
      "name": "geo1_Plate_0",
      "extras": {
        "name": "geo1_Plate_0"
      },
      "mesh": 8
    },
    {
      "name": "geo1",
      "extras": {
        "name": "geo1"
      },
      "children": [
        1,
        2,
        3,
        4,
        5,
        6,
        7,
        8,
        9
      ]
    },
    {
      "name": "RootNode",
      "extras": {
        "name": "RootNode"
      },
      "children": [
        10
      ]
    },
    {
      "matrix": [
        1,
        0,
        0,
        0,
        0,
        2.220446049250313e-16,
        1,
        0,
        0,
        -1,
        2.220446049250313e-16,
        0,
        0,
        0,
        0,
        1
      ],
      "name": "meshfbx",
      "extras": {
        "name": "mesh.fbx"
      },
      "children": [
        11
      ]
    },
    {
      "matrix": [
        1,
        0,
        0,
        0,
        0,
        2.220446049250313e-16,
        -1,
        0,
        0,
        1,
        2.220446049250313e-16,
        0,
        0,
        0,
        0,
        1
      ],
      "name": "Sketchfab_model",
      "extras": {
        "name": "Sketchfab_model"
      },
      "children": [
        12
      ]
    },
    {
      "name": "bus.glb",
      "children": [
        13
      ]
    }
  ],
  "bufferViews": [
    {
      "buffer": 0,
      "byteOffset": 0,
      "byteLength": 77520,
      "target": 34962,
      "byteStride": 12
    },
    {
      "buffer": 0,
      "byteOffset": 77520,
      "byteLength": 77520,
      "target": 34962,
      "byteStride": 12
    },
    {
      "buffer": 0,
      "byteOffset": 155040,
      "byteLength": 97440,
      "target": 34963
    },
    {
      "buffer": 0,
      "byteOffset": 252480,
      "byteLength": 240,
      "target": 34962,
      "byteStride": 12
    },
    {
      "buffer": 0,
      "byteOffset": 252720,
      "byteLength": 240,
      "target": 34962,
      "byteStride": 12
    },
    {
      "buffer": 0,
      "byteOffset": 252960,
      "byteLength": 144,
      "target": 34963
    },
    {
      "buffer": 0,
      "byteOffset": 253104,
      "byteLength": 288,
      "target": 34962,
      "byteStride": 12
    },
    {
      "buffer": 0,
      "byteOffset": 253392,
      "byteLength": 288,
      "target": 34962,
      "byteStride": 12
    },
    {
      "buffer": 0,
      "byteOffset": 253680,
      "byteLength": 192,
      "target": 34963
    },
    {
      "buffer": 0,
      "byteOffset": 253872,
      "byteLength": 2412,
      "target": 34962,
      "byteStride": 12
    },
    {
      "buffer": 0,
      "byteOffset": 256284,
      "byteLength": 2412,
      "target": 34962,
      "byteStride": 12
    },
    {
      "buffer": 0,
      "byteOffset": 258696,
      "byteLength": 2640,
      "target": 34963
    },
    {
      "buffer": 0,
      "byteOffset": 261336,
      "byteLength": 88704,
      "target": 34962,
      "byteStride": 12
    },
    {
      "buffer": 0,
      "byteOffset": 350040,
      "byteLength": 88704,
      "target": 34962,
      "byteStride": 12
    },
    {
      "buffer": 0,
      "byteOffset": 438744,
      "byteLength": 51744,
      "target": 34963
    },
    {
      "buffer": 0,
      "byteOffset": 490488,
      "byteLength": 47424,
      "target": 34962,
      "byteStride": 12
    },
    {
      "buffer": 0,
      "byteOffset": 537912,
      "byteLength": 47424,
      "target": 34962,
      "byteStride": 12
    },
    {
      "buffer": 0,
      "byteOffset": 585336,
      "byteLength": 35136,
      "target": 34963
    },
    {
      "buffer": 0,
      "byteOffset": 620472,
      "byteLength": 40872,
      "target": 34962,
      "byteStride": 12
    },
    {
      "buffer": 0,
      "byteOffset": 661344,
      "byteLength": 40872,
      "target": 34962,
      "byteStride": 12
    },
    {
      "buffer": 0,
      "byteOffset": 702216,
      "byteLength": 75072,
      "target": 34963
    },
    {
      "buffer": 0,
      "byteOffset": 777288,
      "byteLength": 22788,
      "target": 34962,
      "byteStride": 12
    },
    {
      "buffer": 0,
      "byteOffset": 800076,
      "byteLength": 22788,
      "target": 34962,
      "byteStride": 12
    },
    {
      "buffer": 0,
      "byteOffset": 822864,
      "byteLength": 31872,
      "target": 34963
    },
    {
      "buffer": 0,
      "byteOffset": 854736,
      "byteLength": 768,
      "target": 34962,
      "byteStride": 12
    },
    {
      "buffer": 0,
      "byteOffset": 855504,
      "byteLength": 768,
      "target": 34962,
      "byteStride": 12
    },
    {
      "buffer": 0,
      "byteOffset": 856272,
      "byteLength": 480,
      "target": 34963
    }
  ],
  "buffers": [
    {
      "byteLength": 856752,
      "uri": "data:application/octet-stream;base64,"
    }
  ],
  "accessors": [
    {
      "bufferView": 0,
      "componentType": 5126,
      "count": 6460,
      "max": [
        1,
        1,
        1
      ],
      "min": [
        -1,
        -1,
        -1
      ],
      "type": "VEC3"
    },
    {
      "bufferView": 1,
      "componentType": 5126,
      "count": 6460,
      "max": [
        2.500000238418579,
        1.1200000047683716,
        1.092249870300293
      ],
      "min": [
        -2.3000001907348633,
        0.04999999701976776,
        -1.092249870300293
      ],
      "type": "VEC3"
    },
    {
      "bufferView": 2,
      "componentType": 5125,
      "count": 24360,
      "max": [
        6459
      ],
      "min": [
        0
      ],
      "type": "SCALAR"
    },
    {
      "bufferView": 3,
      "componentType": 5126,
      "count": 20,
      "max": [
        0.43525269627571106,
        0.21618105471134186,
        0.8958926796913147
      ],
      "min": [
        -0.9014970064163208,
        0.039442043751478195,
        -0.9006048440933228
      ],
      "type": "VEC3"
    },
    {
      "bufferView": 4,
      "componentType": 5126,
      "count": 20,
      "max": [
        1.997308373451233,
        0.4736911952495575,
        0.9125358462333679
      ],
      "min": [
        -2.238391876220703,
        0.3188832104206085,
        -0.9142336845397949
      ],
      "type": "VEC3"
    },
    {
      "bufferView": 5,
      "componentType": 5125,
      "count": 36,
      "max": [
        19
      ],
      "min": [
        0
      ],
      "type": "SCALAR"
    },
    {
      "bufferView": 6,
      "componentType": 5126,
      "count": 24,
      "max": [
        0.7732201814651489,
        0.3174704909324646,
        0.6135988235473633
      ],
      "min": [
        -0.8686897158622742,
        0.16008499264717102,
        -0.6136301755905151
      ],
      "type": "VEC3"
    },
    {
      "bufferView": 7,
      "componentType": 5126,
      "count": 24,
      "max": [
        2.4163808822631836,
        0.6188881993293762,
        0.8807913064956665
      ],
      "min": [
        -2.223081350326538,
        0.3759700059890747,
        -0.8807912468910217
      ],
      "type": "VEC3"
    },
    {
      "bufferView": 8,
      "componentType": 5125,
      "count": 48,
      "max": [
        23
      ],
      "min": [
        0
      ],
      "type": "SCALAR"
    },
    {
      "bufferView": 9,
      "componentType": 5126,
      "count": 201,
      "max": [
        0.46312370896339417,
        0.9428792595863342,
        0.9172606468200684
      ],
      "min": [
        -0.884644627571106,
        0.3982876241207123,
        -0.9172606468200684
      ],
      "type": "VEC3"
    },
    {
      "bufferView": 10,
      "componentType": 5126,
      "count": 201,
      "max": [
        2.334895133972168,
        1.0805596113204956,
        0.8742350935935974
      ],
      "min": [
        -2.159907102584839,
        0.7153131365776062,
        -0.8742350935935974
      ],
      "type": "VEC3"
    },
    {
      "bufferView": 11,
      "componentType": 5125,
      "count": 660,
      "max": [
        200
      ],
      "min": [
        0
      ],
      "type": "SCALAR"
    },
    {
      "bufferView": 12,
      "componentType": 5126,
      "count": 7392,
      "max": [
        1,
        1,
        1
      ],
      "min": [
        -1,
        -1,
        -1
      ],
      "type": "VEC3"
    },
    {
      "bufferView": 13,
      "componentType": 5126,
      "count": 7392,
      "max": [
        1.8072589635849,
        0.6072589755058289,
        1.2007122039794922
      ],
      "min": [
        -1.607258915901184,
        -0.007258951663970947,
        -1.2007122039794922
      ],
      "type": "VEC3"
    },
    {
      "bufferView": 14,
      "componentType": 5125,
      "count": 12936,
      "max": [
        7391
      ],
      "min": [
        0
      ],
      "type": "SCALAR"
    },
    {
      "bufferView": 15,
      "componentType": 5126,
      "count": 3952,
      "max": [
        1,
        1,
        1
      ],
      "min": [
        -1,
        -1,
        -1
      ],
      "type": "VEC3"
    },
    {
      "bufferView": 16,
      "componentType": 5126,
      "count": 3952,
      "max": [
        2.4398176670074463,
        0.6318410634994507,
        1.2080248594284058
      ],
      "min": [
        -2.263371706008911,
        0.04538831114768982,
        -1.2080248594284058
      ],
      "type": "VEC3"
    },
    {
      "bufferView": 17,
      "componentType": 5125,
      "count": 8784,
      "max": [
        3951
      ],
      "min": [
        0
      ],
      "type": "SCALAR"
    },
    {
      "bufferView": 18,
      "componentType": 5126,
      "count": 3406,
      "max": [
        0.9999935030937195,
        1,
        1
      ],
      "min": [
        -0.9999815821647644,
        -1,
        -1
      ],
      "type": "VEC3"
    },
    {
      "bufferView": 19,
      "componentType": 5126,
      "count": 3406,
      "max": [
        2.5999999046325684,
        0.7083970904350281,
        1.2310653924942017
      ],
      "min": [
        -2.398958444595337,
        0.049999989569187164,
        -1.2310653924942017
      ],
      "type": "VEC3"
    },
    {
      "bufferView": 20,
      "componentType": 5125,
      "count": 18768,
      "max": [
        3405
      ],
      "min": [
        0
      ],
      "type": "SCALAR"
    },
    {
      "bufferView": 21,
      "componentType": 5126,
      "count": 1899,
      "max": [
        0.9991776347160339,
        0.9999626874923706,
        0.9999650120735168
      ],
      "min": [
        -0.9991170763969421,
        -0.9999587535858154,
        -0.9998962879180908
      ],
      "type": "VEC3"
    },
    {
      "bufferView": 22,
      "componentType": 5126,
      "count": 1899,
      "max": [
        2.3464138507843018,
        1.0925430059432983,
        0.8854833841323853
      ],
      "min": [
        -2.1715798377990723,
        0.7037943005561829,
        -0.8854966163635254
      ],
      "type": "VEC3"
    },
    {
      "bufferView": 23,
      "componentType": 5125,
      "count": 7968,
      "max": [
        1898
      ],
      "min": [
        0
      ],
      "type": "SCALAR"
    },
    {
      "bufferView": 24,
      "componentType": 5126,
      "count": 64,
      "max": [
        1,
        1,
        1
      ],
      "min": [
        -1,
        -1,
        -1
      ],
      "type": "VEC3"
    },
    {
      "bufferView": 25,
      "componentType": 5126,
      "count": 64,
      "max": [
        2.619999885559082,
        0.24001054465770721,
        0.29429110884666443
      ],
      "min": [
        -2.4187819957733154,
        0.11998945474624634,
        -0.2942911684513092
      ],
      "type": "VEC3"
    },
    {
      "bufferView": 26,
      "componentType": 5125,
      "count": 120,
      "max": [
        63
      ],
      "min": [
        0
      ],
      "type": "SCALAR"
    }
  ],
  "materials": [
    {
      "pbrMetallicRoughness": {
        "baseColorFactor": [
          0.9301108583738498,
          0.9301108583738498,
          0.9301108583738498,
          1
        ],
        "metallicFactor": 0.27,
        "roughnessFactor": 0
      },
      "doubleSided": true,
      "name": "Body",
      "extensions": {
        "KHR_materials_ior": {
          "ior": 4.555555555555557
        },
        "KHR_materials_clearcoat": {
          "clearcoatFactor": 0.792132559935307,
          "clearcoatRoughnessFactor": 0.1901954167654695
        }
      }
    },
    {
      "pbrMetallicRoughness": {
        "baseColorFactor": [
          0.979986380953846,
          0.1684903371977616,
          0,
          1
        ],
        "metallicFactor": 0,
        "roughnessFactor": 0.9700930243755755
      },
      "emissiveFactor": [
        1,
        0.11387884222721911,
        0
      ],
      "doubleSided": true,
      "name": "Indicator",
      "extensions": {
        "KHR_materials_emissive_strength": {
          "emissiveStrength": 7.374110014653218
        }
      }
    },
    {
      "pbrMetallicRoughness": {
        "metallicFactor": 0,
        "roughnessFactor": 0.20843593625546455
      },
      "emissiveFactor": [
        0.38638409712110955,
        0.38638409712110955,
        0.38638409712110955
      ],
      "doubleSided": true,
      "name": "Headlight",
      "extensions": {
        "KHR_materials_emissive_strength": {
          "emissiveStrength": 7.495713477919851
        }
      }
    },
    {
      "pbrMetallicRoughness": {
        "baseColorFactor": [
          0,
          0.450785782828426,
          1,
          1
        ],
        "metallicFactor": 0.82,
        "roughnessFactor": 0.056431607172172264
      },
      "doubleSided": true,
      "name": "Glass"
    },
    {
      "pbrMetallicRoughness": {
        "baseColorFactor": [
          0.005572829822086463,
          0.005572829822086463,
          0.005572829822086463,
          1
        ],
        "metallicFactor": 0.8286135989152972,
        "roughnessFactor": 0.42124199697207376
      },
      "doubleSided": true,
      "name": "Tyre"
    },
    {
      "pbrMetallicRoughness": {
        "metallicFactor": 0.28,
        "roughnessFactor": 0
      },
      "doubleSided": true,
      "name": "Rims"
    },
    {
      "pbrMetallicRoughness": {
        "baseColorFactor": [
          0.007149217809741786,
          0.007149217809741786,
          0.007149217809741786,
          1
        ],
        "metallicFactor": 0,
        "roughnessFactor": 0.3361195726854301
      },
      "doubleSided": true,
      "name": "Fender"
    },
    {
      "pbrMetallicRoughness": {
        "baseColorFactor": [
          0.003817572869280599,
          0.003817572869280599,
          0.003817572869280599,
          1
        ],
        "metallicFactor": 0,
        "roughnessFactor": 0.29963853370543997
      },
      "doubleSided": true,
      "name": "Fittings"
    },
    {
      "pbrMetallicRoughness": {
        "baseColorFactor": [
          0.01101123050028984,
          0.01101123050028984,
          0.01101123050028984,
          1
        ],
        "metallicFactor": 0,
        "roughnessFactor": 0.28747818737877656
      },
      "doubleSided": true,
      "name": "Plate"
    }
  ],
  "meshes": [
    {
      "primitives": [
        {
          "mode": 4,
          "attributes": {
            "NORMAL": 0,
            "POSITION": 1
          },
          "indices": 2,
          "material": 0
        }
      ]
    },
    {
      "primitives": [
        {
          "mode": 4,
          "attributes": {
            "NORMAL": 3,
            "POSITION": 4
          },
          "indices": 5,
          "material": 1
        }
      ]
    },
    {
      "primitives": [
        {
          "mode": 4,
          "attributes": {
            "NORMAL": 6,
            "POSITION": 7
          },
          "indices": 8,
          "material": 2
        }
      ]
    },
    {
      "primitives": [
        {
          "mode": 4,
          "attributes": {
            "NORMAL": 9,
            "POSITION": 10
          },
          "indices": 11,
          "material": 3
        }
      ]
    },
    {
      "primitives": [
        {
          "mode": 4,
          "attributes": {
            "NORMAL": 12,
            "POSITION": 13
          },
          "indices": 14,
          "material": 4
        }
      ]
    },
    {
      "primitives": [
        {
          "mode": 4,
          "attributes": {
            "NORMAL": 15,
            "POSITION": 16
          },
          "indices": 17,
          "material": 5
        }
      ]
    },
    {
      "primitives": [
        {
          "mode": 4,
          "attributes": {
            "NORMAL": 18,
            "POSITION": 19
          },
          "indices": 20,
          "material": 6
        }
      ]
    },
    {
      "primitives": [
        {
          "mode": 4,
          "attributes": {
            "NORMAL": 21,
            "POSITION": 22
          },
          "indices": 23,
          "material": 7
        }
      ]
    },
    {
      "primitives": [
        {
          "mode": 4,
          "attributes": {
            "NORMAL": 24,
            "POSITION": 25
          },
          "indices": 26,
          "material": 8
        }
      ]
    }
  ],
  "extensionsUsed": [
    "KHR_materials_ior",
    "KHR_materials_clearcoat",
    "KHR_materials_emissive_strength"
  ]
}